<svg width="48" height="48" viewBox="0 0 48 48" fill="none" xmlns="http://www.w3.org/2000/svg">
<path d="M22 41.25C21.1 41.25 20.3334 40.9333 19.7 40.2999C19.0667 39.6666 18.75 38.9 18.75 38V26.45L7.10003 11.5C6.30003 10.5 6.17503 9.44995 6.72503 8.34995C7.27503 7.24995 8.16669 6.69995 9.40003 6.69995H38.6C39.8334 6.69995 40.725 7.24995 41.275 8.34995C41.825 9.44995 41.7167 10.5 40.95 11.5L29.3 26.45V38.4C29.3 39.2333 29.025 39.9166 28.475 40.45C27.925 40.9833 27.2334 41.25 26.4 41.25H22ZM24 25.45L35.05 11.45H13L24 25.45Z" fill="grey"/>
</svg>
