<svg width="16" height="16" viewBox="0 0 16 16" fill="none" xmlns="http://www.w3.org/2000/svg">
<path d="M0.81893 13.6621C0.592559 13.6621 0.399478 13.5822 0.239687 13.4225C0.0798956 13.2627 0 13.0629 0 12.8232C0 12.5969 0.0798956 12.4038 0.239687 12.244C0.399478 12.0842 0.592559 12.0043 0.81893 12.0043H4.55405C4.78042 12.0043 4.97683 12.0842 5.14328 12.244C5.30973 12.4038 5.39295 12.6035 5.39295 12.8432C5.39295 13.0696 5.30973 13.2627 5.14328 13.4225C4.97683 13.5822 4.78042 13.6621 4.55405 13.6621H0.81893ZM0.81893 3.29569C0.592559 3.29569 0.399478 3.2158 0.239687 3.05601C0.0798956 2.89621 0 2.69648 0 2.45679C0 2.23042 0.0798956 2.03734 0.239687 1.87755C0.399478 1.71775 0.592559 1.63786 0.81893 1.63786H7.86972C8.09609 1.63786 8.2925 1.71775 8.45895 1.87755C8.6254 2.03734 8.70862 2.23708 8.70862 2.47676C8.70862 2.70313 8.6254 2.89621 8.45895 3.05601C8.2925 3.2158 8.09609 3.29569 7.86972 3.29569H0.81893ZM7.19061 15.3C6.96423 15.3 6.76782 15.2201 6.60138 15.0603C6.43493 14.9005 6.3517 14.7008 6.3517 14.4611V11.1654C6.3517 10.939 6.43493 10.746 6.60138 10.5862C6.76782 10.4264 6.96423 10.3465 7.19061 10.3465C7.41698 10.3465 7.61006 10.4264 7.76985 10.5862C7.92964 10.746 8.00954 10.939 8.00954 11.1654V12.0043H14.2414C14.4678 12.0043 14.6608 12.0842 14.8206 12.244C14.9804 12.4038 15.0603 12.6035 15.0603 12.8432C15.0603 13.0696 14.9804 13.2627 14.8206 13.4225C14.6608 13.5822 14.4678 13.6621 14.2414 13.6621H8.00954V14.4611C8.00954 14.7008 7.92964 14.9005 7.76985 15.0603C7.61006 15.2201 7.41698 15.3 7.19061 15.3ZM4.55405 10.1068C4.32768 10.1068 4.1346 10.0269 3.97481 9.8671C3.81502 9.70731 3.73512 9.51423 3.73512 9.28786V8.46893H0.81893C0.592559 8.46893 0.399478 8.38903 0.239687 8.22924C0.0798956 8.06945 0 7.87637 0 7.65C0 7.42363 0.0798956 7.23055 0.239687 7.07076C0.399478 6.91097 0.592559 6.83107 0.81893 6.83107H3.73512V5.97219C3.73512 5.74582 3.81502 5.55274 3.97481 5.39295C4.1346 5.23316 4.32768 5.15326 4.55405 5.15326C4.78042 5.15326 4.97683 5.23316 5.14328 5.39295C5.30973 5.55274 5.39295 5.74582 5.39295 5.97219V9.28786C5.39295 9.51423 5.30973 9.70731 5.14328 9.8671C4.97683 10.0269 4.78042 10.1068 4.55405 10.1068ZM7.19061 8.46893C6.96423 8.46893 6.76782 8.38903 6.60138 8.22924C6.43493 8.06945 6.3517 7.87637 6.3517 7.65C6.3517 7.42363 6.43493 7.23055 6.60138 7.07076C6.76782 6.91097 6.96423 6.83107 7.19061 6.83107H14.2414C14.4678 6.83107 14.6608 6.91097 14.8206 7.07076C14.9804 7.23055 15.0603 7.42363 15.0603 7.65C15.0603 7.87637 14.9804 8.06945 14.8206 8.22924C14.6608 8.38903 14.4678 8.46893 14.2414 8.46893H7.19061ZM10.5063 4.95352C10.2799 4.95352 10.0835 4.87363 9.91704 4.71384C9.75059 4.55405 9.66737 4.36097 9.66737 4.1346V0.838903C9.66737 0.599217 9.75059 0.399478 9.91704 0.239687C10.0835 0.0798955 10.2799 0 10.5063 0C10.7326 0 10.9257 0.0798955 11.0855 0.239687C11.2453 0.399478 11.3252 0.599217 11.3252 0.838903V1.63786H14.2414C14.4678 1.63786 14.6608 1.71775 14.8206 1.87755C14.9804 2.03734 15.0603 2.23708 15.0603 2.47676C15.0603 2.70313 14.9804 2.89621 14.8206 3.05601C14.6608 3.2158 14.4678 3.29569 14.2414 3.29569H11.3252V4.1346C11.3252 4.36097 11.2453 4.55405 11.0855 4.71384C10.9257 4.87363 10.7326 4.95352 10.5063 4.95352Z" fill="#7E7E7E"/>
</svg>
