<svg height="{{ size is defined ? size : '48' }}" width="{{ size is defined ? size : '48' }}" viewBox="0 0 30 30" fill="none" xmlns="http://www.w3.org/2000/svg">
<path class="fill-current" d="M15 29.8499C14.3334 29.8499 13.775 29.6249 13.325 29.1749C12.875 28.7249 12.65 28.1666 12.65 27.4999V17.3499H2.50002C1.83336 17.3499 1.27502 17.1249 0.825025 16.6749C0.375025 16.2249 0.150024 15.6666 0.150024 14.9999C0.150024 14.3332 0.375025 13.7749 0.825025 13.3249C1.27502 12.8749 1.83336 12.6499 2.50002 12.6499H12.65V2.4999C12.65 1.83324 12.875 1.2749 13.325 0.824903C13.775 0.374903 14.3334 0.149902 15 0.149902C15.6667 0.149902 16.225 0.374903 16.675 0.824903C17.125 1.2749 17.35 1.83324 17.35 2.4999V12.6499H27.5C28.1667 12.6499 28.725 12.8749 29.175 13.3249C29.625 13.7749 29.85 14.3332 29.85 14.9999C29.85 15.6666 29.625 16.2249 29.175 16.6749C28.725 17.1249 28.1667 17.3499 27.5 17.3499H17.35V27.4999C17.35 28.1666 17.125 28.7249 16.675 29.1749C16.225 29.6249 15.6667 29.8499 15 29.8499Z" fill="white"/>
</svg>
