<svg viewBox="0 0 50 50" height="{{ size is defined ? size : '48' }}" width="{{ size is defined ? size : '48' }}" fill="none" xmlns="http://www.w3.org/2000/svg">
  <path class="fill-current" d="M38.05 41.6501L26.3 29.9501C25.3333 30.7168 24.1916 31.3168 22.875 31.7501C21.5583 32.1834 20.1333 32.4001 18.6 32.4001C14.7666 32.4001 11.5166 31.0668 8.84998 28.4001C6.18331 25.7334 4.84998 22.5168 4.84998 18.7501C4.84998 14.9834 6.18331 11.7668 8.84998 9.1001C11.5166 6.43343 14.75 5.1001 18.55 5.1001C22.3166 5.1001 25.525 6.43343 28.175 9.1001C30.825 11.7668 32.15 14.9834 32.15 18.7501C32.15 20.2501 31.9416 21.6418 31.525 22.9251C31.1083 24.2084 30.4833 25.4168 29.65 26.5501L41.5 38.3001C41.9666 38.7668 42.2 39.3251 42.2 39.9751C42.2 40.6251 41.95 41.1834 41.45 41.6501C40.9833 42.1501 40.4166 42.4001 39.75 42.4001C39.0833 42.4001 38.5166 42.1501 38.05 41.6501ZM18.55 27.7001C21.05 27.7001 23.1583 26.8251 24.875 25.0751C26.5916 23.3251 27.45 21.2168 27.45 18.7501C27.45 16.2501 26.5916 14.1334 24.875 12.4001C23.1583 10.6668 21.05 9.8001 18.55 9.8001C16.05 9.8001 13.925 10.6668 12.175 12.4001C10.425 14.1334 9.54998 16.2501 9.54998 18.7501C9.54998 21.2168 10.425 23.3251 12.175 25.0751C13.925 26.8251 16.05 27.7001 18.55 27.7001Z" fill="grey"/>
</svg>
