<svg viewBox="0 0 50 50" height="{{ size is defined ? size : '48' }}" width="{{ size is defined ? size : '48' }}" fill="none" xmlns="http://www.w3.org/2000/svg">
<path class="fill-current" d="M21.5 37.4001C20.8334 37.4001 20.275 37.175 19.825 36.725C19.375 36.275 19.15 35.7167 19.15 35.05C19.15 34.3834 19.375 33.8251 19.825 33.375C20.275 32.925 20.8334 32.7001 21.5 32.7001H26.5C27.1667 32.7001 27.725 32.925 28.175 33.375C28.625 33.8251 28.85 34.3834 28.85 35.05C28.85 35.7167 28.625 36.275 28.175 36.725C27.725 37.175 27.1667 37.4001 26.5 37.4001H21.5ZM7.50002 15.3C6.83336 15.3 6.27502 15.075 5.82502 14.625C5.37502 14.175 5.15002 13.6167 5.15002 12.95C5.15002 12.2834 5.37502 11.7167 5.82502 11.25C6.27502 10.7834 6.83336 10.55 7.50002 10.55H40.5C41.1667 10.55 41.725 10.7834 42.175 11.25C42.625 11.7167 42.85 12.2834 42.85 12.95C42.85 13.6167 42.625 14.175 42.175 14.625C41.725 15.075 41.1667 15.3 40.5 15.3H7.50002ZM13.5 26.35C12.8334 26.35 12.275 26.125 11.825 25.675C11.375 25.225 11.15 24.6667 11.15 24C11.15 23.3334 11.375 22.775 11.825 22.325C12.275 21.875 12.8334 21.65 13.5 21.65H34.5C35.1667 21.65 35.725 21.875 36.175 22.325C36.625 22.775 36.85 23.3334 36.85 24C36.85 24.6667 36.625 25.225 36.175 25.675C35.725 26.125 35.1667 26.35 34.5 26.35H13.5Z" fill="grey"/>
</svg>
