<svg width="48" height="48" viewBox="0 0 48 48" fill="none" xmlns="http://www.w3.org/2000/svg">
<path d="M34.5005 34.5005C34.0291 34.9719 33.4752 35.2076 32.8388 35.2076C32.2024 35.2076 31.6485 34.9719 31.1771 34.5005L24 27.3234L16.8229 34.5005C16.3515 34.9719 15.7976 35.2076 15.1612 35.2076C14.5248 35.2076 13.9709 34.9719 13.4995 34.5005C13.0281 34.0291 12.7924 33.4752 12.7924 32.8388C12.7924 32.2024 13.0281 31.6485 13.4995 31.1771L20.6766 24L13.4995 16.8229C13.0281 16.3515 12.7924 15.7976 12.7924 15.1612C12.7924 14.5248 13.0281 13.9709 13.4995 13.4995C13.9709 13.0281 14.5248 12.7924 15.1612 12.7924C15.7976 12.7924 16.3515 13.0281 16.8229 13.4995L24 20.6766L31.1771 13.4995C31.6485 13.0281 32.2024 12.7924 32.8388 12.7924C33.4752 12.7924 34.0291 13.0281 34.5005 13.4995C34.9719 13.9709 35.2076 14.5248 35.2076 15.1612C35.2076 15.7976 34.9719 16.3515 34.5005 16.8229L27.3234 24L34.5005 31.1771C34.9719 31.6485 35.2076 32.2024 35.2076 32.8388C35.2076 33.4752 34.9719 34.0291 34.5005 34.5005Z" fill="black"/>
</svg>
