<svg viewBox="0 0 50 50" height="{{ size is defined ? size : '48' }}" width="{{ size is defined ? size : '48' }}" fill="none" xmlns="http://www.w3.org/2000/svg">
<path class="fill-current" d="M7.50002 37.4001C6.83336 37.4001 6.27502 37.175 5.82502 36.725C5.37502 36.275 5.15002 35.7167 5.15002 35.05C5.15002 34.3834 5.37502 33.8251 5.82502 33.375C6.27502 32.925 6.83336 32.7001 7.50002 32.7001H40.5C41.1667 32.7001 41.725 32.925 42.175 33.375C42.625 33.8251 42.85 34.3834 42.85 35.05C42.85 35.7167 42.625 36.275 42.175 36.725C41.725 37.175 41.1667 37.4001 40.5 37.4001H7.50002ZM7.50002 26.35C6.83336 26.35 6.27502 26.125 5.82502 25.675C5.37502 25.225 5.15002 24.6667 5.15002 24C5.15002 23.3334 5.37502 22.775 5.82502 22.325C6.27502 21.875 6.83336 21.65 7.50002 21.65H40.5C41.1667 21.65 41.725 21.875 42.175 22.325C42.625 22.775 42.85 23.3334 42.85 24C42.85 24.6667 42.625 25.225 42.175 25.675C41.725 26.125 41.1667 26.35 40.5 26.35H7.50002ZM7.50002 15.3C6.83336 15.3 6.27502 15.075 5.82502 14.625C5.37502 14.175 5.15002 13.6167 5.15002 12.95C5.15002 12.2834 5.37502 11.7167 5.82502 11.25C6.27502 10.7834 6.83336 10.55 7.50002 10.55H40.5C41.1667 10.55 41.725 10.7834 42.175 11.25C42.625 11.7167 42.85 12.2834 42.85 12.95C42.85 13.6167 42.625 14.175 42.175 14.625C41.725 15.075 41.1667 15.3 40.5 15.3H7.50002Z" fill="black"/>
</svg>
